# xmcd CD database file
#
# Track frame offsets:
#	182
#	17117
#	30945
#	45707
#	61267
#	73742
#	86265
#	101595
#	113030
#	126250
#
# Disc length: 1814 seconds
#
# Revision: 4
# Processed by: cddbd v1.5.2PL0 Copyright (c) Steve Scherf et al.
# Submitted via: CDex 1.79
#
DISCID=7a07140a
DTITLE=Jeff Knight - They've Been Talkin' About Me
DYEAR=1992
DGENRE=Country
TTITLE0=Tearing Down Walls
TTITLE1=You Gotta Let Go
TTITLE2=They've Been Talkin' About Me
TTITLE3=I Wish She Didn't Know Me
TTITLE4=All I Think About Is You
TTITLE5=The Bitter End
TTITLE6=I Got Through Everything (But The Door)
TTITLE7=Someone Like You
TTITLE8=Gettin' In To Goin' Out
TTITLE9=Everybody's Doin' It
EXTD=34 YEAR: 1992
EXTT0=
EXTT1=
EXTT2=
EXTT3=
EXTT4=
EXTT5=
EXTT6=
EXTT7=
EXTT8=
EXTT9=
PLAYORDER=
